<mxfile host="app.diagrams.net" modified="2024-04-11T18:31:33.252Z" agent="Mozilla/5.0 (Windows NT 10.0; Win64; x64) AppleWebKit/537.36 (KHTML, like Gecko) Chrome/123.0.0.0 Safari/537.36" etag="5g_N7cDQFzNhlfltrRAS" version="24.2.3" type="github">
  <diagram name="PÃ¡gina-1" id="21dMazKgDtN5A4R0uCIt">
    <mxGraphModel dx="792" dy="1104" grid="1" gridSize="10" guides="1" tooltips="1" connect="1" arrows="1" fold="1" page="1" pageScale="1" pageWidth="1169" pageHeight="827" math="0" shadow="0">
      <root>
        <mxCell id="0" />
        <mxCell id="1" parent="0" />
        <mxCell id="S1v9DRBgkolXMPgVoIUC-3" style="edgeStyle=orthogonalEdgeStyle;rounded=0;orthogonalLoop=1;jettySize=auto;html=1;" edge="1" parent="1" source="S1v9DRBgkolXMPgVoIUC-1" target="S1v9DRBgkolXMPgVoIUC-2">
          <mxGeometry relative="1" as="geometry" />
        </mxCell>
        <mxCell id="S1v9DRBgkolXMPgVoIUC-1" value="Actor" style="shape=umlActor;verticalLabelPosition=bottom;verticalAlign=top;html=1;outlineConnect=0;" vertex="1" parent="1">
          <mxGeometry x="100" y="80" width="30" height="60" as="geometry" />
        </mxCell>
        <mxCell id="S1v9DRBgkolXMPgVoIUC-7" value="" style="edgeStyle=orthogonalEdgeStyle;rounded=0;orthogonalLoop=1;jettySize=auto;html=1;" edge="1" parent="1" source="S1v9DRBgkolXMPgVoIUC-2" target="S1v9DRBgkolXMPgVoIUC-6">
          <mxGeometry relative="1" as="geometry">
            <Array as="points">
              <mxPoint x="460" y="110" />
              <mxPoint x="460" y="110" />
            </Array>
          </mxGeometry>
        </mxCell>
        <mxCell id="S1v9DRBgkolXMPgVoIUC-12" style="edgeStyle=orthogonalEdgeStyle;rounded=0;orthogonalLoop=1;jettySize=auto;html=1;" edge="1" parent="1" source="S1v9DRBgkolXMPgVoIUC-2">
          <mxGeometry relative="1" as="geometry">
            <mxPoint x="350" y="210" as="targetPoint" />
          </mxGeometry>
        </mxCell>
        <mxCell id="S1v9DRBgkolXMPgVoIUC-13" value="Transfiere Segundo Nivel" style="edgeLabel;html=1;align=center;verticalAlign=middle;resizable=0;points=[];" vertex="1" connectable="0" parent="S1v9DRBgkolXMPgVoIUC-12">
          <mxGeometry x="0.1548" y="2" relative="1" as="geometry">
            <mxPoint as="offset" />
          </mxGeometry>
        </mxCell>
        <mxCell id="S1v9DRBgkolXMPgVoIUC-2" value="Primer Nivel" style="shape=process;whiteSpace=wrap;html=1;backgroundOutline=1;fillColor=#dae8fc;strokeColor=#6c8ebf;" vertex="1" parent="1">
          <mxGeometry x="290" y="90" width="120" height="40" as="geometry" />
        </mxCell>
        <mxCell id="S1v9DRBgkolXMPgVoIUC-11" style="edgeStyle=orthogonalEdgeStyle;rounded=0;orthogonalLoop=1;jettySize=auto;html=1;entryX=0;entryY=0.5;entryDx=0;entryDy=0;" edge="1" parent="1" source="S1v9DRBgkolXMPgVoIUC-4" target="S1v9DRBgkolXMPgVoIUC-8">
          <mxGeometry relative="1" as="geometry" />
        </mxCell>
        <mxCell id="S1v9DRBgkolXMPgVoIUC-4" value="Segundo Nivel" style="shape=process;whiteSpace=wrap;html=1;backgroundOutline=1;fillColor=#ffe6cc;strokeColor=#d79b00;" vertex="1" parent="1">
          <mxGeometry x="280" y="560" width="120" height="40" as="geometry" />
        </mxCell>
        <mxCell id="S1v9DRBgkolXMPgVoIUC-6" value="Caso: RecordType X" style="whiteSpace=wrap;html=1;fillColor=#fff2cc;strokeColor=#d6b656;" vertex="1" parent="1">
          <mxGeometry x="510" y="90" width="120" height="40" as="geometry" />
        </mxCell>
        <mxCell id="S1v9DRBgkolXMPgVoIUC-8" value="Caso: RecordType Y" style="whiteSpace=wrap;html=1;fillColor=#d5e8d4;strokeColor=#82b366;" vertex="1" parent="1">
          <mxGeometry x="500" y="560" width="120" height="40" as="geometry" />
        </mxCell>
        <mxCell id="S1v9DRBgkolXMPgVoIUC-16" value="" style="edgeStyle=orthogonalEdgeStyle;rounded=0;orthogonalLoop=1;jettySize=auto;html=1;" edge="1" parent="1" source="S1v9DRBgkolXMPgVoIUC-14" target="S1v9DRBgkolXMPgVoIUC-15">
          <mxGeometry relative="1" as="geometry" />
        </mxCell>
        <mxCell id="S1v9DRBgkolXMPgVoIUC-14" value="Crea la Tarea" style="rounded=0;whiteSpace=wrap;html=1;fillColor=#f5f5f5;fontColor=#333333;strokeColor=#666666;" vertex="1" parent="1">
          <mxGeometry x="290" y="210" width="120" height="30" as="geometry" />
        </mxCell>
        <mxCell id="S1v9DRBgkolXMPgVoIUC-22" value="" style="edgeStyle=orthogonalEdgeStyle;rounded=0;orthogonalLoop=1;jettySize=auto;html=1;" edge="1" parent="1" source="S1v9DRBgkolXMPgVoIUC-15" target="S1v9DRBgkolXMPgVoIUC-21">
          <mxGeometry relative="1" as="geometry" />
        </mxCell>
        <mxCell id="S1v9DRBgkolXMPgVoIUC-15" value="Process Builder" style="whiteSpace=wrap;html=1;rounded=0;fillColor=#d5e8d4;strokeColor=#82b366;" vertex="1" parent="1">
          <mxGeometry x="290" y="270" width="120" height="35" as="geometry" />
        </mxCell>
        <mxCell id="S1v9DRBgkolXMPgVoIUC-21" value="Flow" style="whiteSpace=wrap;html=1;rounded=0;fillColor=#f8cecc;strokeColor=#b85450;" vertex="1" parent="1">
          <mxGeometry x="290" y="340" width="120" height="35" as="geometry" />
        </mxCell>
        <mxCell id="S1v9DRBgkolXMPgVoIUC-26" style="edgeStyle=orthogonalEdgeStyle;rounded=0;orthogonalLoop=1;jettySize=auto;html=1;entryX=0.5;entryY=0;entryDx=0;entryDy=0;" edge="1" parent="1" source="S1v9DRBgkolXMPgVoIUC-24" target="S1v9DRBgkolXMPgVoIUC-8">
          <mxGeometry relative="1" as="geometry" />
        </mxCell>
        <mxCell id="S1v9DRBgkolXMPgVoIUC-27" value="RecordType Asignado" style="edgeLabel;html=1;align=center;verticalAlign=middle;resizable=0;points=[];" vertex="1" connectable="0" parent="S1v9DRBgkolXMPgVoIUC-26">
          <mxGeometry x="-0.3158" y="2" relative="1" as="geometry">
            <mxPoint y="1" as="offset" />
          </mxGeometry>
        </mxCell>
        <mxCell id="S1v9DRBgkolXMPgVoIUC-24" value="Objeto Relacion Colas - RT" style="shape=cylinder3;whiteSpace=wrap;html=1;boundedLbl=1;backgroundOutline=1;size=15;" vertex="1" parent="1">
          <mxGeometry x="555" y="311.5" width="115" height="92" as="geometry" />
        </mxCell>
        <mxCell id="S1v9DRBgkolXMPgVoIUC-25" style="edgeStyle=orthogonalEdgeStyle;rounded=0;orthogonalLoop=1;jettySize=auto;html=1;entryX=0;entryY=0.5;entryDx=0;entryDy=0;entryPerimeter=0;" edge="1" parent="1" source="S1v9DRBgkolXMPgVoIUC-21" target="S1v9DRBgkolXMPgVoIUC-24">
          <mxGeometry relative="1" as="geometry" />
        </mxCell>
      </root>
    </mxGraphModel>
  </diagram>
</mxfile>
